<svg version="1.1" id="Layer_1" xmlns="http://www.w3.org/2000/svg" xmlns:xlink="http://www.w3.org/1999/xlink" x="0px" y="0px"
	 width="100%" viewBox="0 0 496 496" enable-background="new 0 0 496 496" xml:space="preserve">
<path fill="#000000" opacity="1.000000" stroke="none" 
	d="
M199.015091,328.175354 
	C191.936722,309.246124 185.043518,290.693207 178.150330,272.140289 
	C177.780182,272.262909 177.410049,272.385529 177.039917,272.508118 
	C179.023773,278.256165 180.909515,284.040863 183.036804,289.735352 
	C183.968475,292.229309 183.983200,294.492920 183.090988,296.977295 
	C179.659775,306.531433 176.248062,316.094940 173.033340,325.723206 
	C171.933273,329.017853 170.304718,330.478455 166.602783,330.446503 
	C146.946228,330.277069 127.286812,330.294739 107.629852,330.442596 
	C104.001419,330.469879 102.358124,329.140472 101.243744,325.739960 
	C88.497177,286.844177 75.605545,247.995956 62.792866,209.121780 
	C62.343102,207.757141 61.490089,206.353485 62.263611,204.724457 
	C63.543011,203.344818 65.300934,203.749725 66.899673,203.746414 
	C83.225769,203.712646 99.552757,203.811005 115.877563,203.661606 
	C119.690582,203.626709 121.491882,204.950775 122.499359,208.702805 
	C126.896255,225.077728 131.573929,241.377289 136.160263,257.701233 
	C136.637726,259.400635 136.835663,261.234192 138.667770,263.111603 
	C140.750183,255.859177 142.730164,249.048462 144.659897,242.223526 
	C147.871567,230.864883 151.148560,219.523087 154.183502,208.117096 
	C155.072418,204.776337 156.727814,203.631226 160.153320,203.660873 
	C176.644836,203.803619 193.139420,203.825195 209.630280,203.646515 
	C213.649597,203.602966 215.501022,204.924072 216.551895,208.907562 
	C220.663971,224.495087 225.110641,239.994766 229.495621,255.509399 
	C230.150482,257.826385 230.513565,260.343109 232.900055,262.489960 
	C236.548752,249.562637 240.105301,236.944260 243.673157,224.329086 
	C245.256760,218.729767 246.946411,213.158691 248.420120,207.530853 
	C249.048279,205.132050 250.085266,203.708038 252.785614,203.717911 
	C270.610168,203.783127 288.434937,203.781525 306.259552,203.831619 
	C306.886627,203.833374 307.512817,204.149185 308.059296,204.296951 
	C309.129333,206.347427 308.059235,208.005096 307.507690,209.685547 
	C294.847137,248.257309 282.112457,286.804932 269.581665,325.418732 
	C268.320923,329.303802 266.466339,330.500427 262.476746,330.459717 
	C243.320496,330.264252 224.161072,330.395264 205.002869,330.356293 
	C202.936447,330.352081 200.554245,331.001465 199.015091,328.175354 
z"/>
<path fill="#000000" opacity="1.000000" stroke="none" 
	d="
M368.084106,203.694122 
	C390.391998,203.687317 412.212891,203.795837 434.030762,203.589966 
	C438.729736,203.545639 440.467621,204.845856 440.359741,209.759003 
	C440.067383,223.077652 440.108612,236.409561 440.343231,249.730484 
	C440.421661,254.181076 438.832520,255.442535 434.538300,255.402832 
	C415.385345,255.225739 396.229706,255.298767 377.075226,255.351501 
	C370.423798,255.369812 365.996063,258.361908 364.312775,263.691650 
	C362.685699,268.843475 365.249146,274.883423 370.235535,277.646820 
	C375.178864,280.386353 381.354919,279.476318 384.881226,275.488739 
	C388.589630,271.295380 388.524536,265.960175 384.692230,260.899719 
	C384.102722,260.121307 383.472534,259.373627 382.858002,258.607819 
	C384.006897,256.634064 385.841309,257.133209 387.372803,257.124756 
	C399.031830,257.060516 410.693451,257.205963 422.349518,257.007843 
	C426.256256,256.941467 428.442261,258.955902 430.517609,261.738525 
	C449.885773,287.707703 435.946533,321.899597 403.350220,328.289673 
	C396.482361,329.636017 389.572784,330.414886 382.538910,330.383270 
	C360.886169,330.285858 339.231689,330.262238 317.580231,330.465393 
	C313.050293,330.507904 311.504395,329.158966 311.590057,324.531281 
	C311.849030,310.544769 311.821930,296.548126 311.597565,282.560364 
	C311.529968,278.347687 313.077393,276.947784 317.076996,277.063263 
	C323.111145,277.237457 329.154083,277.108673 335.193268,277.108673 
	C335.197693,276.509949 335.202118,275.911224 335.206573,275.312500 
	C331.977661,275.312500 328.741333,275.176575 325.522095,275.353180 
	C322.667114,275.509796 320.917786,274.354431 319.476257,271.929077 
	C304.791748,247.222672 316.249023,215.538818 343.543976,207.598969 
	C351.428772,205.305359 359.450226,204.204254 368.084106,203.694122 
z"/>
</svg>